<svg width="32" height="32" viewBox="0 0 32 32" fill="none" xmlns="http://www.w3.org/2000/svg">
  <rect width="32" height="32" rx="8" fill="#f59e0b"/>
  <path d="M9 10h14a1 1 0 0 1 1 1v10a1 1 0 0 1-1 1H9a1 1 0 0 1-1-1V11a1 1 0 0 1 1-1z" fill="white" fill-opacity="0.1"/>
  <path d="M16 8c-1.657 0-3 1.343-3 3v2h6v-2c0-1.657-1.343-3-3-3z" fill="white" fill-opacity="0.9"/>
  <path d="M11 17h10" stroke="#7c2d12" stroke-width="2" stroke-linecap="round"/>
  <path d="M12 20h8" stroke="#7c2d12" stroke-width="2" stroke-linecap="round"/>
</svg>